<?xml version="1.0" encoding="UTF-8" standalone="no"?>
<!DOCTYPE svg PUBLIC "-//W3C//DTD SVG 1.1//EN" "http://www.w3.org/Graphics/SVG/1.1/DTD/svg11.dtd">
<svg version="1.1" xmlns="http://www.w3.org/2000/svg" xmlns:xlink="http://www.w3.org/1999/xlink" preserveAspectRatio="xMidYMid meet" viewBox="140.54811278244233 403.1720000000001 75.99999984694321 40.001681464332876" width="72" height="36"><defs><path d="M177.55 404.17L177.55 404.17L195.55 413.17L213.55 422.18L195.55 431.17L177.55 440.17L159.55 431.17L141.55 422.17L159.55 413.17L159.55 413.17L177.55 404.17Z" id="h1XXWbfJfK"></path><path d="M156.07 414.17L158.07 414.17L158.07 430.17L156.07 430.17L156.07 414.17Z" id="m2gOUlIkb1"></path><path d="M163.07 411.17L165.07 411.17L165.07 434.17L163.07 434.17L163.07 411.17Z" id="b1twL1g47L"></path><path d="M170.07 407.64L172.07 407.64L172.07 437.64L170.07 437.64L170.07 407.64Z" id="aMjQR4Xye"></path><path d="M176.84 405.17L178.84 405.17L178.84 440.17L176.84 440.17L176.84 405.17Z" id="cpFlvIpp7"></path><path d="M183.84 408.17L185.84 408.17L185.84 437.17L183.84 437.17L183.84 408.17Z" id="d4plXgt34G"></path><path d="M190.84 411.17L192.84 411.17L192.84 434.17L190.84 434.17L190.84 411.17Z" id="aR2x2h7N"></path><path d="M197.84 414.64L199.84 414.64L199.84 430.64L197.84 430.64L197.84 414.64Z" id="bcxHD7uoO"></path><path d="M149.57 418.14L151.57 418.14L151.57 426.64L149.57 426.64L149.57 418.14Z" id="c8y7VvmFO"></path><path d="M204.34 418.17L206.34 418.17L206.34 426.67L204.34 426.67L204.34 418.17Z" id="a31fesL20s"></path></defs><g><g><use xlink:href="#h1XXWbfJfK" opacity="1" fill="#ffffff" fill-opacity="1"></use><g><use xlink:href="#h1XXWbfJfK" opacity="1" fill-opacity="0" stroke="#0000cc" stroke-width="2" stroke-opacity="1"></use></g></g><g><use xlink:href="#m2gOUlIkb1" opacity="1" fill="#0000cc" fill-opacity="1"></use></g><g><use xlink:href="#b1twL1g47L" opacity="1" fill="#0000cc" fill-opacity="1"></use></g><g><use xlink:href="#aMjQR4Xye" opacity="1" fill="#0000cc" fill-opacity="1"></use></g><g><use xlink:href="#cpFlvIpp7" opacity="1" fill="#0000cc" fill-opacity="1"></use></g><g><use xlink:href="#d4plXgt34G" opacity="1" fill="#0000cc" fill-opacity="1"></use></g><g><use xlink:href="#aR2x2h7N" opacity="1" fill="#0000cc" fill-opacity="1"></use></g><g><use xlink:href="#bcxHD7uoO" opacity="1" fill="#0000cc" fill-opacity="1"></use></g><g><use xlink:href="#c8y7VvmFO" opacity="1" fill="#0000cc" fill-opacity="1"></use></g><g><use xlink:href="#a31fesL20s" opacity="1" fill="#0000cc" fill-opacity="1"></use></g></g></svg>