<?xml version="1.0" encoding="UTF-8" standalone="no"?>
<!DOCTYPE svg PUBLIC "-//W3C//DTD SVG 1.1//EN" "http://www.w3.org/Graphics/SVG/1.1/DTD/svg11.dtd">
<svg version="1.1" xmlns="http://www.w3.org/2000/svg" xmlns:xlink="http://www.w3.org/1999/xlink" preserveAspectRatio="xMidYMid meet" viewBox="29.34482758620689 357.73563218390814 76 37.575977011494444" width="72" height="33.58"><defs><path d="M85.58 358.74C94.84 358.74 102.34 366.24 102.34 375.5C102.34 378.85 102.34 372.15 102.34 375.5C102.34 384.76 94.84 392.27 85.58 392.27C74.53 392.27 58.16 392.27 47.11 392.27C37.85 392.27 30.34 384.76 30.34 375.5C30.34 372.15 30.34 378.85 30.34 375.5C30.34 366.24 37.85 358.74 47.11 358.74C58.16 358.74 74.53 358.74 85.58 358.74Z" id="behAxH2OS"></path><path d="M42.07 359.31L44.07 359.31L44.07 392.31L42.07 392.31L42.07 359.31Z" id="f1BHk3LLWa"></path><path d="M49.07 359.31L51.07 359.31L51.07 392.31L49.07 392.31L49.07 359.31Z" id="j1zFr5anP4"></path><path d="M56.07 358.78L58.07 358.78L58.07 391.78L56.07 391.78L56.07 358.78Z" id="allwQRue"></path><path d="M62.84 359.31L64.84 359.31L64.84 392.31L62.84 392.31L62.84 359.31Z" id="awR2cqee3"></path><path d="M69.84 359.31L71.84 359.31L71.84 392.31L69.84 392.31L69.84 359.31Z" id="jZ0QEw7eu"></path><path d="M76.84 359.31L78.84 359.31L78.84 392.31L76.84 392.31L76.84 359.31Z" id="f2KHoaVkZS"></path><path d="M83.84 358.78L85.84 358.78L85.84 391.78L83.84 391.78L83.84 358.78Z" id="c3gaywP6ih"></path><path d="M96.34 363.28L98.34 363.28L98.34 387.28L96.34 387.28L96.34 363.28Z" id="by7Z1IUIr"></path><path d="M35.57 363.28L37.57 363.28L37.57 388.28L35.57 388.28L35.57 363.28Z" id="a1HIbX3ctt"></path><path d="M90.34 359.31L92.34 359.31L92.34 392.31L90.34 392.31L90.34 359.31Z" id="hV23LXAUL"></path></defs><g><g><use xlink:href="#behAxH2OS" opacity="1" fill="#ffffff" fill-opacity="1"></use><g><use xlink:href="#behAxH2OS" opacity="1" fill-opacity="0" stroke="#00cc00" stroke-width="2" stroke-opacity="1"></use></g></g><g><use xlink:href="#f1BHk3LLWa" opacity="1" fill="#00cc00" fill-opacity="1"></use></g><g><use xlink:href="#j1zFr5anP4" opacity="1" fill="#00cc00" fill-opacity="1"></use></g><g><use xlink:href="#allwQRue" opacity="1" fill="#00cc00" fill-opacity="1"></use></g><g><use xlink:href="#awR2cqee3" opacity="1" fill="#00cc00" fill-opacity="1"></use></g><g><use xlink:href="#jZ0QEw7eu" opacity="1" fill="#00cc00" fill-opacity="1"></use></g><g><use xlink:href="#f2KHoaVkZS" opacity="1" fill="#00cc00" fill-opacity="1"></use></g><g><use xlink:href="#c3gaywP6ih" opacity="1" fill="#00cc00" fill-opacity="1"></use></g><g><use xlink:href="#by7Z1IUIr" opacity="1" fill="#00cc00" fill-opacity="1"></use></g><g><use xlink:href="#a1HIbX3ctt" opacity="1" fill="#00cc00" fill-opacity="1"></use></g><g><use xlink:href="#hV23LXAUL" opacity="1" fill="#00cc00" fill-opacity="1"></use></g></g></svg>