<?xml version="1.0" encoding="UTF-8" standalone="no"?>
<!DOCTYPE svg PUBLIC "-//W3C//DTD SVG 1.1//EN" "http://www.w3.org/Graphics/SVG/1.1/DTD/svg11.dtd">
<svg version="1.1" xmlns="http://www.w3.org/2000/svg" xmlns:xlink="http://www.w3.org/1999/xlink" preserveAspectRatio="xMidYMid meet" viewBox="241.53791801045506 359.7816091954025 80.79541532287803 35.591087495812474" width="76.8" height="31.59"><defs><path d="M275.49 363.02L277.49 363.02L277.49 385.02L275.49 385.02L275.49 363.02Z" id="b2NU1O3Hg"></path><path d="M309.18 360.92L309.72 361.06L310.25 361.24L310.76 361.47L311.26 361.74L311.73 362.05L312.18 362.41L312.6 362.81L313 363.26L317.96 369.39L318.3 369.86L318.6 370.34L318.84 370.85L319.03 371.36L319.18 371.89L319.28 372.43L319.33 372.97L319.33 373.51L319.29 374.05L319.2 374.58L319.06 375.11L318.88 375.62L318.65 376.11L318.38 376.59L318.07 377.04L317.71 377.47L317.3 377.87L316.85 378.24L301.96 389.37L301.47 389.7L300.96 389.99L300.44 390.22L299.9 390.41L299.36 390.55L298.8 390.65L298.24 390.69L297.69 390.69L297.13 390.65L296.58 390.56L296.43 390.52L296.1 390.51L295.49 390.46L294.87 390.37L294.25 390.24L293.64 390.07L269.39 382.59L258.07 391.05L257.58 391.38L257.07 391.67L256.55 391.9L256.01 392.09L255.46 392.23L254.91 392.33L254.35 392.37L253.8 392.37L253.24 392.33L252.69 392.23L252.15 392.1L251.62 391.92L251.11 391.69L250.62 391.42L250.14 391.1L249.69 390.74L249.27 390.34L248.87 389.9L243.91 383.77L243.57 383.3L243.28 382.81L243.03 382.31L242.84 381.79L242.69 381.26L242.59 380.72L242.54 380.18L242.54 379.64L242.58 379.1L242.67 378.57L242.81 378.05L242.99 377.54L243.22 377.04L243.49 376.56L243.81 376.11L244.17 375.68L244.57 375.28L245.02 374.91L259.91 363.78L260.06 363.68L260.09 363.66L260.55 363.27L261.03 362.92L261.53 362.6L262.05 362.3L262.59 362.04L263.13 361.81L263.7 361.61L264.27 361.44L264.86 361.31L265.45 361.22L266.05 361.16L266.66 361.13L267.27 361.14L267.89 361.19L268.51 361.28L269.12 361.41L269.74 361.58L294.35 369.17L303.8 362.11L304.29 361.77L304.8 361.49L305.32 361.25L305.86 361.06L306.41 360.92L306.96 360.83L307.52 360.78L308.07 360.78L308.63 360.83L309.18 360.92Z" id="e26qqAN8TF"></path><path d="M268.71 361.49L270.71 361.49L270.71 383.49L268.71 383.49L268.71 361.49Z" id="a1jd4o2XgS"></path><path d="M254.71 367.02L256.71 367.02L256.71 392.02L254.71 392.02L254.71 367.02Z" id="e3qzN8zkUM"></path><path d="M261.71 362.02L263.71 362.02L263.71 387.02L261.71 387.02L261.71 362.02Z" id="cPccUPE6I"></path><path d="M282.49 365.02L284.49 365.02L284.49 386.02L282.49 386.02L282.49 365.02Z" id="c1bUMLiXvs"></path><path d="M289.49 368.02L291.49 368.02L291.49 389.02L289.49 389.02L289.49 368.02Z" id="afwocvVUU"></path><path d="M296.49 366.49L298.49 366.49L298.49 390.49L296.49 390.49L296.49 366.49Z" id="b1TyFCYsnZ"></path><path d="M309.32 362.02L311.32 362.02L311.32 383.02L309.32 383.02L309.32 362.02Z" id="d1Gn5HPKVI"></path><path d="M302.99 362.02L304.99 362.02L304.99 387.02L302.99 387.02L302.99 362.02Z" id="axc8BTbjm"></path><path d="M315.32 367.02L317.32 367.02L317.32 379.02L315.32 379.02L315.32 367.02Z" id="aXc4vOnCv"></path><path d="M248.21 370.99L250.21 370.99L250.21 389.99L248.21 389.99L248.21 370.99Z" id="b1FBt44K7O"></path><path d="M275.16 363.02L277.16 363.02L277.16 385.02L275.16 385.02L275.16 363.02Z" id="bqJUSuUWw"></path></defs><g><g><use xlink:href="#b2NU1O3Hg" opacity="1" fill="#00cc00" fill-opacity="1"></use></g><g><use xlink:href="#e26qqAN8TF" opacity="1" fill="#ffffff" fill-opacity="1"></use><g><use xlink:href="#e26qqAN8TF" opacity="1" fill-opacity="0" stroke="#00cc00" stroke-width="2" stroke-opacity="1"></use></g></g><g><use xlink:href="#a1jd4o2XgS" opacity="1" fill="#00cc00" fill-opacity="1"></use></g><g><use xlink:href="#e3qzN8zkUM" opacity="1" fill="#00cc00" fill-opacity="1"></use></g><g><use xlink:href="#cPccUPE6I" opacity="1" fill="#00cc00" fill-opacity="1"></use></g><g><use xlink:href="#c1bUMLiXvs" opacity="1" fill="#00cc00" fill-opacity="1"></use></g><g><use xlink:href="#afwocvVUU" opacity="1" fill="#00cc00" fill-opacity="1"></use></g><g><use xlink:href="#b1TyFCYsnZ" opacity="1" fill="#00cc00" fill-opacity="1"></use></g><g><use xlink:href="#d1Gn5HPKVI" opacity="1" fill="#00cc00" fill-opacity="1"></use></g><g><use xlink:href="#axc8BTbjm" opacity="1" fill="#00cc00" fill-opacity="1"></use></g><g><use xlink:href="#aXc4vOnCv" opacity="1" fill="#00cc00" fill-opacity="1"></use></g><g><use xlink:href="#b1FBt44K7O" opacity="1" fill="#00cc00" fill-opacity="1"></use></g><g><use xlink:href="#bqJUSuUWw" opacity="1" fill="#00cc00" fill-opacity="1"></use></g></g></svg>