<?xml version="1.0" encoding="UTF-8" standalone="no"?>
<!DOCTYPE svg PUBLIC "-//W3C//DTD SVG 1.1//EN" "http://www.w3.org/Graphics/SVG/1.1/DTD/svg11.dtd">
<svg version="1.1" xmlns="http://www.w3.org/2000/svg" xmlns:xlink="http://www.w3.org/1999/xlink" preserveAspectRatio="xMidYMid meet" viewBox="242.20458467712209 121.46370912565709 80.79541532287797 35.591087495812445" width="76.8" height="31.59"><defs><path d="M309.85 122.6L310.39 122.74L310.91 122.92L311.43 123.15L311.92 123.42L312.4 123.73L312.85 124.09L313.27 124.49L313.66 124.94L318.63 131.07L318.97 131.54L319.26 132.02L319.51 132.53L319.7 133.05L319.85 133.58L319.95 134.11L320 134.65L320 135.19L319.96 135.73L319.87 136.26L319.73 136.79L319.55 137.3L319.32 137.79L319.05 138.27L318.73 138.73L318.37 139.15L317.97 139.55L317.52 139.92L302.63 151.05L302.14 151.39L301.63 151.67L301.11 151.91L300.57 152.1L300.02 152.24L299.47 152.33L298.91 152.38L298.35 152.38L297.8 152.33L297.25 152.24L297.1 152.2L296.87 152.2L296.23 152.15L295.58 152.06L294.94 151.93L294.3 151.76L270.05 144.28L258.74 152.73L258.25 153.06L257.74 153.35L257.22 153.59L256.68 153.77L256.13 153.91L255.58 154.01L255.02 154.05L254.46 154.05L253.91 154.01L253.36 153.92L252.82 153.78L252.29 153.6L251.78 153.37L251.28 153.1L250.81 152.78L250.36 152.43L249.93 152.02L249.54 151.58L244.58 145.45L244.24 144.98L243.94 144.49L243.7 143.99L243.5 143.47L243.36 142.94L243.26 142.41L243.21 141.87L243.2 141.33L243.25 140.79L243.34 140.25L243.47 139.73L243.66 139.22L243.88 138.72L244.16 138.25L244.47 137.79L244.83 137.36L245.24 136.96L245.68 136.6L260.58 125.47L260.75 125.35L260.92 125.2L261.41 124.81L261.92 124.46L262.45 124.13L262.99 123.84L263.56 123.59L264.14 123.37L264.73 123.18L265.34 123.03L265.95 122.92L266.58 122.85L267.21 122.81L267.84 122.82L268.48 122.87L269.12 122.96L269.77 123.09L270.41 123.26L295.01 130.85L304.47 123.79L304.96 123.45L305.46 123.17L305.99 122.93L306.53 122.74L307.07 122.6L307.63 122.51L308.18 122.46L308.74 122.46L309.3 122.51L309.85 122.6Z" id="aYiUM2ei"></path></defs><g><g><use xlink:href="#aYiUM2ei" opacity="1" fill="#0000cc" fill-opacity="1"></use><g><use xlink:href="#aYiUM2ei" opacity="1" fill-opacity="0" stroke="#0000cc" stroke-width="2" stroke-opacity="1"></use></g></g></g></svg>