<?xml version="1.0" encoding="UTF-8" standalone="no"?>
<!DOCTYPE svg PUBLIC "-//W3C//DTD SVG 1.1//EN" "http://www.w3.org/Graphics/SVG/1.1/DTD/svg11.dtd">
<svg version="1.1" xmlns="http://www.w3.org/2000/svg" xmlns:xlink="http://www.w3.org/1999/xlink" preserveAspectRatio="xMidYMid meet" viewBox="242.20458467712194 75.02692751646168 80.795415322878 35.59108749581242" width="76.8" height="31.59"><defs><path d="M309.85 76.16L310.39 76.3L310.91 76.48L311.43 76.71L311.92 76.98L312.4 77.3L312.85 77.66L313.27 78.06L313.66 78.5L318.63 84.63L318.97 85.1L319.26 85.59L319.51 86.09L319.7 86.61L319.85 87.14L319.95 87.68L320 88.22L320 88.76L319.96 89.29L319.87 89.83L319.73 90.35L319.55 90.86L319.32 91.36L319.05 91.83L318.73 92.29L318.37 92.72L317.97 93.12L317.52 93.48L302.63 104.61L302.14 104.95L301.63 105.23L301.11 105.47L300.57 105.66L300.02 105.8L299.47 105.89L298.91 105.94L298.35 105.94L297.8 105.89L297.25 105.8L297.1 105.76L296.77 105.76L296.15 105.71L295.54 105.62L294.92 105.49L294.3 105.32L270.05 97.84L258.74 106.29L258.25 106.63L257.74 106.91L257.22 107.15L256.68 107.34L256.13 107.48L255.58 107.57L255.02 107.62L254.46 107.62L253.91 107.57L253.36 107.48L252.82 107.34L252.29 107.16L251.78 106.93L251.28 106.66L250.81 106.35L250.36 105.99L249.93 105.59L249.54 105.14L244.58 99.01L244.24 98.54L243.94 98.06L243.7 97.55L243.5 97.03L243.36 96.51L243.26 95.97L243.21 95.43L243.2 94.89L243.25 94.35L243.34 93.82L243.47 93.29L243.66 92.78L243.88 92.29L244.16 91.81L244.47 91.36L244.83 90.93L245.24 90.53L245.68 90.16L260.58 79.03L260.73 78.93L260.76 78.9L261.22 78.52L261.7 78.17L262.2 77.84L262.72 77.55L263.25 77.28L263.8 77.05L264.36 76.85L264.94 76.69L265.52 76.56L266.12 76.46L266.72 76.4L267.33 76.38L267.94 76.39L268.56 76.44L269.17 76.53L269.79 76.66L270.41 76.83L295.01 84.42L304.47 77.35L304.96 77.02L305.46 76.73L305.99 76.5L306.53 76.31L307.07 76.17L307.63 76.07L308.18 76.03L308.74 76.03L309.3 76.07L309.85 76.16Z" id="h6Ae3vHCbk"></path></defs><g><g><use xlink:href="#h6Ae3vHCbk" opacity="1" fill="#00cc00" fill-opacity="1"></use><g><use xlink:href="#h6Ae3vHCbk" opacity="1" fill-opacity="0" stroke="#00cc00" stroke-width="2" stroke-opacity="1"></use></g></g></g></svg>