<?xml version="1.0" encoding="UTF-8" standalone="no"?>
<!DOCTYPE svg PUBLIC "-//W3C//DTD SVG 1.1//EN" "http://www.w3.org/Graphics/SVG/1.1/DTD/svg11.dtd">
<svg version="1.1" xmlns="http://www.w3.org/2000/svg" xmlns:xlink="http://www.w3.org/1999/xlink" preserveAspectRatio="xMidYMid meet" viewBox="242.20458467712194 172.98732327617952 80.795415322878 35.59108749581239" width="76.8" height="31.59"><defs><path d="M309.85 174.13L310.39 174.26L310.91 174.44L311.43 174.67L311.92 174.94L312.4 175.26L312.85 175.62L313.27 176.02L313.66 176.46L318.63 182.59L318.97 183.06L319.26 183.55L319.51 184.05L319.7 184.57L319.85 185.1L319.95 185.64L320 186.18L320 186.72L319.96 187.26L319.87 187.79L319.73 188.31L319.55 188.82L319.32 189.32L319.05 189.8L318.73 190.25L318.37 190.68L317.97 191.08L317.52 191.45L302.63 202.58L302.14 202.91L301.63 203.19L301.11 203.43L300.57 203.62L300.02 203.76L299.47 203.85L298.91 203.9L298.35 203.9L297.8 203.85L297.25 203.76L297.1 203.72L296.87 203.72L296.23 203.67L295.58 203.59L294.94 203.45L294.3 203.28L270.05 195.8L258.74 204.25L258.25 204.59L257.74 204.87L257.22 205.11L256.68 205.3L256.13 205.44L255.58 205.53L255.02 205.58L254.46 205.58L253.91 205.53L253.36 205.44L252.82 205.3L252.29 205.12L251.78 204.89L251.28 204.62L250.81 204.31L250.36 203.95L249.93 203.55L249.54 203.1L244.58 196.97L244.24 196.5L243.94 196.02L243.7 195.51L243.5 195L243.36 194.47L243.26 193.93L243.21 193.39L243.2 192.85L243.25 192.31L243.34 191.78L243.47 191.25L243.66 190.74L243.88 190.25L244.16 189.77L244.47 189.32L244.83 188.89L245.24 188.49L245.68 188.12L260.58 176.99L260.75 176.87L260.92 176.72L261.41 176.33L261.92 175.98L262.45 175.66L262.99 175.37L263.56 175.11L264.14 174.89L264.73 174.71L265.34 174.56L265.95 174.45L266.58 174.37L267.21 174.34L267.84 174.34L268.48 174.39L269.12 174.48L269.77 174.61L270.41 174.79L295.01 182.38L304.47 175.31L304.96 174.98L305.46 174.69L305.99 174.46L306.53 174.27L307.07 174.13L307.63 174.03L308.18 173.99L308.74 173.99L309.3 174.03L309.85 174.13Z" id="a1aWLDM3rM"></path></defs><g><g><use xlink:href="#a1aWLDM3rM" opacity="1" fill="#ffffff" fill-opacity="1"></use><g><use xlink:href="#a1aWLDM3rM" opacity="1" fill-opacity="0" stroke="#cc0000" stroke-width="2" stroke-opacity="1"></use></g></g></g></svg>