<?xml version="1.0" encoding="UTF-8" standalone="no"?>
<!DOCTYPE svg PUBLIC "-//W3C//DTD SVG 1.1//EN" "http://www.w3.org/Graphics/SVG/1.1/DTD/svg11.dtd">
<svg version="1.1" xmlns="http://www.w3.org/2000/svg" xmlns:xlink="http://www.w3.org/1999/xlink" preserveAspectRatio="xMidYMid meet" viewBox="242.2045846771219 313.41773211416285 80.79541532287806 35.591087495812474" width="76.8" height="31.59"><defs><path d="M275.49 317.01L277.49 317.01L277.49 339.01L275.49 339.01L275.49 317.01Z" id="eWCNygOiW"></path><path d="M309.85 314.56L310.39 314.69L310.91 314.88L311.43 315.1L311.92 315.37L312.4 315.69L312.85 316.05L313.27 316.45L313.66 316.89L318.63 323.03L318.97 323.49L319.26 323.98L319.51 324.48L319.7 325L319.85 325.53L319.95 326.07L320 326.61L320 327.15L319.96 327.69L319.87 328.22L319.73 328.74L319.55 329.25L319.32 329.75L319.05 330.23L318.73 330.68L318.37 331.11L317.97 331.51L317.52 331.88L302.63 343.01L302.14 343.34L301.63 343.62L301.11 343.86L300.57 344.05L300.02 344.19L299.47 344.28L298.91 344.33L298.35 344.33L297.8 344.28L297.25 344.19L297.1 344.16L296.77 344.15L296.15 344.1L295.54 344.01L294.92 343.88L294.3 343.71L270.05 336.23L258.74 344.68L258.25 345.02L257.74 345.3L257.22 345.54L256.68 345.73L256.13 345.87L255.58 345.96L255.02 346.01L254.46 346.01L253.91 345.96L253.36 345.87L252.82 345.73L252.29 345.55L251.78 345.32L251.28 345.05L250.81 344.74L250.36 344.38L249.93 343.98L249.54 343.53L244.58 337.4L244.24 336.93L243.94 336.45L243.7 335.94L243.5 335.43L243.36 334.9L243.26 334.36L243.21 333.82L243.2 333.28L243.25 332.74L243.34 332.21L243.47 331.68L243.66 331.17L243.88 330.68L244.16 330.2L244.47 329.75L244.83 329.32L245.24 328.92L245.68 328.55L260.58 317.42L260.73 317.32L260.76 317.29L261.22 316.91L261.7 316.56L262.2 316.23L262.72 315.94L263.25 315.68L263.8 315.44L264.36 315.25L264.94 315.08L265.52 314.95L266.12 314.85L266.72 314.79L267.33 314.77L267.94 314.78L268.56 314.83L269.17 314.92L269.79 315.05L270.41 315.22L295.01 322.81L304.47 315.74L304.96 315.41L305.46 315.12L305.99 314.89L306.53 314.7L307.07 314.56L307.63 314.46L308.18 314.42L308.74 314.42L309.3 314.46L309.85 314.56Z" id="b5qrosBfAi"></path><path d="M254.71 321.01L256.71 321.01L256.71 346.01L254.71 346.01L254.71 321.01Z" id="cOCfFW3hG"></path><path d="M261.71 316.01L263.71 316.01L263.71 341.01L261.71 341.01L261.71 316.01Z" id="g3OCIbQaMA"></path><path d="M282.49 319.01L284.49 319.01L284.49 340.01L282.49 340.01L282.49 319.01Z" id="b3NTs7Otll"></path><path d="M289.49 322.01L291.49 322.01L291.49 343.01L289.49 343.01L289.49 322.01Z" id="d144vnncQd"></path><path d="M296.49 320.48L298.49 320.48L298.49 344.48L296.49 344.48L296.49 320.48Z" id="cwjlx4zBs"></path><path d="M309.32 316.01L311.32 316.01L311.32 337.01L309.32 337.01L309.32 316.01Z" id="akDDrtXJV"></path><path d="M302.99 316.01L304.99 316.01L304.99 341.01L302.99 341.01L302.99 316.01Z" id="a1sq00KXS4"></path><path d="M315.32 321.01L317.32 321.01L317.32 333.01L315.32 333.01L315.32 321.01Z" id="aiYqYiA0l"></path><path d="M254.71 346.01L254.71 321.01L256.71 321.01L256.71 346.01L254.71 346.01ZM296.49 344.48L296.49 320.48L298.49 320.48L298.49 344.48L296.49 344.48ZM248.21 343.98L248.21 324.98L250.21 324.98L250.21 343.98L248.21 343.98ZM289.49 343.01L289.49 322.01L291.49 322.01L291.49 343.01L289.49 343.01ZM302.99 341.01L302.99 316.01L304.99 316.01L304.99 341.01L302.99 341.01ZM261.71 341.01L261.71 316.01L263.71 316.01L263.71 341.01L261.71 341.01ZM282.49 340.01L282.49 319.01L284.49 319.01L284.49 340.01L282.49 340.01ZM275.49 339.01L275.49 317.01L277.49 317.01L277.49 339.01L275.49 339.01ZM268.71 337.48L268.71 315.48L270.71 315.48L270.71 337.48L268.71 337.48ZM309.32 337.01L309.32 316.01L311.32 316.01L311.32 337.01L309.32 337.01ZM315.32 333.01L315.32 321.01L317.32 321.01L317.32 333.01L315.32 333.01Z" id="f1RLe3BsD4"></path><path d="M248.21 324.98L250.21 324.98L250.21 343.98L248.21 343.98L248.21 324.98Z" id="aLe4Ew59B"></path></defs><g><g><use xlink:href="#eWCNygOiW" opacity="1" fill="#cc0000" fill-opacity="1"></use></g><g><use xlink:href="#b5qrosBfAi" opacity="1" fill="#ffffff" fill-opacity="1"></use><g><use xlink:href="#b5qrosBfAi" opacity="1" fill-opacity="0" stroke="#cc0000" stroke-width="2" stroke-opacity="1"></use></g></g><g><use xlink:href="#cOCfFW3hG" opacity="1" fill="#cc0000" fill-opacity="1"></use></g><g><use xlink:href="#g3OCIbQaMA" opacity="1" fill="#cc0000" fill-opacity="1"></use></g><g><use xlink:href="#b3NTs7Otll" opacity="1" fill="#cc0000" fill-opacity="1"></use></g><g><use xlink:href="#d144vnncQd" opacity="1" fill="#cc0000" fill-opacity="1"></use></g><g><use xlink:href="#cwjlx4zBs" opacity="1" fill="#cc0000" fill-opacity="1"></use></g><g><use xlink:href="#akDDrtXJV" opacity="1" fill="#cc0000" fill-opacity="1"></use></g><g><use xlink:href="#a1sq00KXS4" opacity="1" fill="#cc0000" fill-opacity="1"></use></g><g><use xlink:href="#aiYqYiA0l" opacity="1" fill="#cc0000" fill-opacity="1"></use></g><g><use xlink:href="#f1RLe3BsD4" opacity="1" fill="#cc0000" fill-opacity="1"></use></g><g><use xlink:href="#aLe4Ew59B" opacity="1" fill="#cc0000" fill-opacity="1"></use></g></g></svg>