<?xml version="1.0" encoding="UTF-8" standalone="no"?>
<!DOCTYPE svg PUBLIC "-//W3C//DTD SVG 1.1//EN" "http://www.w3.org/Graphics/SVG/1.1/DTD/svg11.dtd">
<svg version="1.1" xmlns="http://www.w3.org/2000/svg" xmlns:xlink="http://www.w3.org/1999/xlink" preserveAspectRatio="xMidYMid meet" viewBox="142.54811278244233 309.9770000000001 75.99999984694321 40.001275862069065" width="72" height="36"><defs><path d="M179.55 310.98L197.55 319.98L215.55 328.98L197.55 337.98L179.55 346.98L161.55 337.98L143.55 328.98L161.55 319.98L161.55 319.98L179.55 310.98Z" id="e21XyxyniL"></path><path d="M157.66 320.45L159.66 320.45L159.66 336.45L157.66 336.45L157.66 320.45Z" id="a3R8nNGAaC"></path><path d="M164.66 317.45L166.66 317.45L166.66 340.45L164.66 340.45L164.66 317.45Z" id="f4JBQLxyM"></path><path d="M171.66 313.92L173.66 313.92L173.66 343.92L171.66 343.92L171.66 313.92Z" id="b2qR4I0U3K"></path><path d="M178.44 311.45L180.44 311.45L180.44 346.45L178.44 346.45L178.44 311.45Z" id="d1OzF0NaFI"></path><path d="M185.44 314.45L187.44 314.45L187.44 343.45L185.44 343.45L185.44 314.45Z" id="b1aJvV5rau"></path><path d="M192.44 317.45L194.44 317.45L194.44 340.45L192.44 340.45L192.44 317.45Z" id="cUHCuG114"></path><path d="M199.44 320.92L201.44 320.92L201.44 336.92L199.44 336.92L199.44 320.92Z" id="bhMmjMtoJ"></path><path d="M151.16 324.42L153.16 324.42L153.16 332.92L151.16 332.92L151.16 324.42Z" id="bbZwUcOva"></path><path d="M205.94 324.45L207.94 324.45L207.94 332.95L205.94 332.95L205.94 324.45Z" id="cj20FIRGQ"></path></defs><g><g><use xlink:href="#e21XyxyniL" opacity="1" fill="#ffffff" fill-opacity="1"></use><g><use xlink:href="#e21XyxyniL" opacity="1" fill-opacity="0" stroke="#cc0000" stroke-width="2" stroke-opacity="1"></use></g></g><g><use xlink:href="#a3R8nNGAaC" opacity="1" fill="#cc0000" fill-opacity="1"></use></g><g><use xlink:href="#f4JBQLxyM" opacity="1" fill="#cc0000" fill-opacity="1"></use></g><g><use xlink:href="#b2qR4I0U3K" opacity="1" fill="#cc0000" fill-opacity="1"></use></g><g><use xlink:href="#d1OzF0NaFI" opacity="1" fill="#cc0000" fill-opacity="1"></use></g><g><use xlink:href="#b1aJvV5rau" opacity="1" fill="#cc0000" fill-opacity="1"></use></g><g><use xlink:href="#cUHCuG114" opacity="1" fill="#cc0000" fill-opacity="1"></use></g><g><use xlink:href="#bhMmjMtoJ" opacity="1" fill="#cc0000" fill-opacity="1"></use></g><g><use xlink:href="#bbZwUcOva" opacity="1" fill="#cc0000" fill-opacity="1"></use></g><g><use xlink:href="#cj20FIRGQ" opacity="1" fill="#cc0000" fill-opacity="1"></use></g></g></svg>