<?xml version="1.0" encoding="UTF-8" standalone="no"?>
<!DOCTYPE svg PUBLIC "-//W3C//DTD SVG 1.1//EN" "http://www.w3.org/Graphics/SVG/1.1/DTD/svg11.dtd">
<svg version="1.1" xmlns="http://www.w3.org/2000/svg" xmlns:xlink="http://www.w3.org/1999/xlink" preserveAspectRatio="xMidYMid meet" viewBox="140.54811278244233 356.281 75.99999984694321 40.00122086836569" width="72" height="36"><defs><path d="M177.55 357.28L195.55 366.28L213.55 375.28L195.55 384.28L177.55 393.28L159.55 384.28L141.55 375.28L159.55 366.28L159.55 366.28L177.55 357.28Z" id="e7oYMiBnR"></path><path d="M156.07 366.78L158.07 366.78L158.07 382.78L156.07 382.78L156.07 366.78Z" id="e3egKvRPTT"></path><path d="M163.07 363.78L165.07 363.78L165.07 386.78L163.07 386.78L163.07 363.78Z" id="a33HCzq5pC"></path><path d="M170.07 360.25L172.07 360.25L172.07 390.25L170.07 390.25L170.07 360.25Z" id="a2LtyBcRuO"></path><path d="M176.84 357.78L178.84 357.78L178.84 392.78L176.84 392.78L176.84 357.78Z" id="bYqXp9oG6"></path><path d="M183.84 360.78L185.84 360.78L185.84 389.78L183.84 389.78L183.84 360.78Z" id="bmhLceIw1"></path><path d="M190.84 363.78L192.84 363.78L192.84 386.78L190.84 386.78L190.84 363.78Z" id="buy5kXErn"></path><path d="M197.84 367.25L199.84 367.25L199.84 383.25L197.84 383.25L197.84 367.25Z" id="fR5WEjeRf"></path><path d="M149.57 370.75L151.57 370.75L151.57 379.25L149.57 379.25L149.57 370.75Z" id="b1D4aUYIYX"></path><path d="M204.34 370.78L206.34 370.78L206.34 379.28L204.34 379.28L204.34 370.78Z" id="f7MKHmlh3z"></path></defs><g><g><use xlink:href="#e7oYMiBnR" opacity="1" fill="#ffffff" fill-opacity="1"></use><g><use xlink:href="#e7oYMiBnR" opacity="1" fill-opacity="0" stroke="#00cc00" stroke-width="2" stroke-opacity="1"></use></g></g><g><use xlink:href="#e3egKvRPTT" opacity="1" fill="#00cc00" fill-opacity="1"></use></g><g><use xlink:href="#a33HCzq5pC" opacity="1" fill="#00cc00" fill-opacity="1"></use></g><g><use xlink:href="#a2LtyBcRuO" opacity="1" fill="#00cc00" fill-opacity="1"></use></g><g><use xlink:href="#bYqXp9oG6" opacity="1" fill="#00cc00" fill-opacity="1"></use></g><g><use xlink:href="#bmhLceIw1" opacity="1" fill="#00cc00" fill-opacity="1"></use></g><g><use xlink:href="#buy5kXErn" opacity="1" fill="#00cc00" fill-opacity="1"></use></g><g><use xlink:href="#fR5WEjeRf" opacity="1" fill="#00cc00" fill-opacity="1"></use></g><g><use xlink:href="#b1D4aUYIYX" opacity="1" fill="#00cc00" fill-opacity="1"></use></g><g><use xlink:href="#f7MKHmlh3z" opacity="1" fill="#00cc00" fill-opacity="1"></use></g></g></svg>