<?xml version="1.0" encoding="UTF-8" standalone="no"?>
<!DOCTYPE svg PUBLIC "-//W3C//DTD SVG 1.1//EN" "http://www.w3.org/Graphics/SVG/1.1/DTD/svg11.dtd">
<svg version="1.1" xmlns="http://www.w3.org/2000/svg" xmlns:xlink="http://www.w3.org/1999/xlink" preserveAspectRatio="xMidYMid meet" viewBox="29.34482758620689 312.4482758620691 76 37.53000000000014" width="72" height="33.53"><defs><path d="M85.58 313.45C94.84 313.45 102.34 320.95 102.34 330.21C102.34 333.57 102.34 326.86 102.34 330.21C102.34 339.47 94.84 346.98 85.58 346.98C74.53 346.98 58.16 346.98 47.11 346.98C37.85 346.98 30.34 339.47 30.34 330.21C30.34 326.86 30.34 333.57 30.34 330.21C30.34 320.95 37.85 313.45 47.11 313.45C58.16 313.45 74.53 313.45 85.58 313.45Z" id="bx1XKfu7g"></path><path d="M42.07 313.98L44.07 313.98L44.07 346.98L42.07 346.98L42.07 313.98Z" id="b1PAFacCSb"></path><path d="M49.07 313.98L51.07 313.98L51.07 346.98L49.07 346.98L49.07 313.98Z" id="d3LGGaEtkZ"></path><path d="M56.07 313.45L58.07 313.45L58.07 346.45L56.07 346.45L56.07 313.45Z" id="d3yhMh6Rxm"></path><path d="M62.84 313.98L64.84 313.98L64.84 346.98L62.84 346.98L62.84 313.98Z" id="k1CoxytGj"></path><path d="M69.84 313.98L71.84 313.98L71.84 346.98L69.84 346.98L69.84 313.98Z" id="aqBRRV2S4"></path><path d="M76.84 313.98L78.84 313.98L78.84 346.98L76.84 346.98L76.84 313.98Z" id="a48owGGlT"></path><path d="M83.84 313.45L85.84 313.45L85.84 346.45L83.84 346.45L83.84 313.45Z" id="e6oChNi2PW"></path><path d="M96.34 317.95L98.34 317.95L98.34 341.95L96.34 341.95L96.34 317.95Z" id="bwdcqMR2G"></path><path d="M35.57 317.95L37.57 317.95L37.57 342.95L35.57 342.95L35.57 317.95Z" id="a6FciKJxqv"></path><path d="M90.34 313.98L92.34 313.98L92.34 346.98L90.34 346.98L90.34 313.98Z" id="fjAP3uOCy"></path></defs><g><g><use xlink:href="#bx1XKfu7g" opacity="1" fill="#ffffff" fill-opacity="1"></use><g><use xlink:href="#bx1XKfu7g" opacity="1" fill-opacity="0" stroke="#cc0000" stroke-width="2" stroke-opacity="1"></use></g></g><g><use xlink:href="#b1PAFacCSb" opacity="1" fill="#cc0000" fill-opacity="1"></use></g><g><use xlink:href="#d3LGGaEtkZ" opacity="1" fill="#cc0000" fill-opacity="1"></use></g><g><use xlink:href="#d3yhMh6Rxm" opacity="1" fill="#cc0000" fill-opacity="1"></use></g><g><use xlink:href="#k1CoxytGj" opacity="1" fill="#cc0000" fill-opacity="1"></use></g><g><use xlink:href="#aqBRRV2S4" opacity="1" fill="#cc0000" fill-opacity="1"></use></g><g><use xlink:href="#a48owGGlT" opacity="1" fill="#cc0000" fill-opacity="1"></use></g><g><use xlink:href="#e6oChNi2PW" opacity="1" fill="#cc0000" fill-opacity="1"></use></g><g><use xlink:href="#bwdcqMR2G" opacity="1" fill="#cc0000" fill-opacity="1"></use></g><g><use xlink:href="#a6FciKJxqv" opacity="1" fill="#cc0000" fill-opacity="1"></use></g><g><use xlink:href="#fjAP3uOCy" opacity="1" fill="#cc0000" fill-opacity="1"></use></g></g></svg>