<?xml version="1.0" encoding="UTF-8" standalone="no"?>
<!DOCTYPE svg PUBLIC "-//W3C//DTD SVG 1.1//EN" "http://www.w3.org/Graphics/SVG/1.1/DTD/svg11.dtd">
<svg version="1.1" xmlns="http://www.w3.org/2000/svg" xmlns:xlink="http://www.w3.org/1999/xlink" preserveAspectRatio="xMidYMid meet" viewBox="29.34482758620689 404.1724137931035 76 37.530000000000086" width="72" height="33.53"><defs><path d="M85.58 405.17C94.84 405.17 102.34 412.68 102.34 421.94C102.34 425.29 102.34 418.58 102.34 421.94C102.34 431.2 94.84 438.7 85.58 438.7C74.53 438.7 58.16 438.7 47.11 438.7C37.85 438.7 30.34 431.2 30.34 421.94C30.34 418.58 30.34 425.29 30.34 421.94C30.34 412.68 37.85 405.17 47.11 405.17C58.16 405.17 74.53 405.17 85.58 405.17Z" id="c1pwLpqpNY"></path><path d="M41.46 405.7L43.46 405.7L43.46 438.7L41.46 438.7L41.46 405.7Z" id="a6l6T27H7E"></path><path d="M55.46 405.17L57.46 405.17L57.46 438.17L55.46 438.17L55.46 405.17Z" id="e6a7CfHwz7"></path><path d="M62.23 405.7L64.23 405.7L64.23 438.7L62.23 438.7L62.23 405.7Z" id="bwdBheMyT"></path><path d="M48.46 405.7L50.46 405.7L50.46 438.7L48.46 438.7L48.46 405.7Z" id="bpJ0mRF1S"></path><path d="M69.23 405.7L71.23 405.7L71.23 438.7L69.23 438.7L69.23 405.7Z" id="d6ZKmoAb"></path><path d="M76.23 405.7L78.23 405.7L78.23 438.7L76.23 438.7L76.23 405.7Z" id="bWghDkoj6"></path><path d="M83.23 405.17L85.23 405.17L85.23 438.17L83.23 438.17L83.23 405.17Z" id="bpkwFf0kR"></path><path d="M89.73 405.7L91.73 405.7L91.73 438.7L89.73 438.7L89.73 405.7Z" id="i1DdtuaLGM"></path><path d="M95.73 409.67L97.73 409.67L97.73 433.67L95.73 433.67L95.73 409.67Z" id="a1FEgUtbWl"></path><path d="M34.96 409.67L36.96 409.67L36.96 434.67L34.96 434.67L34.96 409.67Z" id="aac7bz4B"></path></defs><g><g><use xlink:href="#c1pwLpqpNY" opacity="1" fill="#ffffff" fill-opacity="1"></use><g><use xlink:href="#c1pwLpqpNY" opacity="1" fill-opacity="0" stroke="#0000cc" stroke-width="2" stroke-opacity="1"></use></g></g><g><use xlink:href="#a6l6T27H7E" opacity="1" fill="#0000cc" fill-opacity="1"></use></g><g><use xlink:href="#e6a7CfHwz7" opacity="1" fill="#0000cc" fill-opacity="1"></use></g><g><use xlink:href="#bwdBheMyT" opacity="1" fill="#0000cc" fill-opacity="1"></use></g><g><use xlink:href="#bpJ0mRF1S" opacity="1" fill="#0000cc" fill-opacity="1"></use></g><g><use xlink:href="#d6ZKmoAb" opacity="1" fill="#0000cc" fill-opacity="1"></use></g><g><use xlink:href="#bWghDkoj6" opacity="1" fill="#0000cc" fill-opacity="1"></use></g><g><use xlink:href="#bpkwFf0kR" opacity="1" fill="#0000cc" fill-opacity="1"></use></g><g><use xlink:href="#i1DdtuaLGM" opacity="1" fill="#0000cc" fill-opacity="1"></use></g><g><use xlink:href="#a1FEgUtbWl" opacity="1" fill="#0000cc" fill-opacity="1"></use></g><g><use xlink:href="#aac7bz4B" opacity="1" fill="#0000cc" fill-opacity="1"></use></g></g></svg>