<?xml version="1.0" encoding="UTF-8" standalone="no"?>
<!DOCTYPE svg PUBLIC "-//W3C//DTD SVG 1.1//EN" "http://www.w3.org/Graphics/SVG/1.1/DTD/svg11.dtd">
<svg version="1.1" xmlns="http://www.w3.org/2000/svg" xmlns:xlink="http://www.w3.org/1999/xlink" preserveAspectRatio="xMidYMid meet" viewBox="242.20458467712203 265.68091745930775 80.79541532287797 35.59108749581242" width="76.8" height="31.59"><defs><path d="M309.85 266.82L310.39 266.96L310.91 267.14L311.43 267.37L311.92 267.64L312.4 267.95L312.85 268.31L313.27 268.71L313.66 269.15L318.63 275.29L318.97 275.75L319.26 276.24L319.51 276.75L319.7 277.26L319.85 277.79L319.95 278.33L320 278.87L320 279.41L319.96 279.95L319.87 280.48L319.73 281.01L319.55 281.52L319.32 282.01L319.05 282.49L318.73 282.94L318.37 283.37L317.97 283.77L317.52 284.14L302.63 295.27L302.14 295.6L301.63 295.89L301.11 296.12L300.57 296.31L300.02 296.45L299.47 296.55L298.91 296.59L298.35 296.59L297.8 296.55L297.25 296.46L297.1 296.42L296.77 296.41L296.15 296.36L295.54 296.27L294.92 296.14L294.3 295.97L270.05 288.49L258.74 296.95L258.25 297.28L257.74 297.57L257.22 297.8L256.68 297.99L256.13 298.13L255.58 298.23L255.02 298.27L254.46 298.27L253.91 298.23L253.36 298.13L252.82 298L252.29 297.81L251.78 297.59L251.28 297.32L250.81 297L250.36 296.64L249.93 296.24L249.54 295.8L244.58 289.66L244.24 289.2L243.94 288.71L243.7 288.21L243.5 287.69L243.36 287.16L243.26 286.62L243.21 286.08L243.2 285.54L243.25 285L243.34 284.47L243.47 283.95L243.66 283.44L243.88 282.94L244.16 282.46L244.47 282.01L244.83 281.58L245.24 281.18L245.68 280.81L260.58 269.68L260.73 269.58L260.76 269.55L261.22 269.17L261.7 268.82L262.2 268.5L262.72 268.2L263.25 267.94L263.8 267.71L264.36 267.51L264.94 267.34L265.52 267.21L266.12 267.12L266.72 267.05L267.33 267.03L267.94 267.04L268.56 267.09L269.17 267.18L269.79 267.31L270.41 267.48L295.01 275.07L304.47 268.01L304.96 267.67L305.46 267.39L305.99 267.15L306.53 266.96L307.07 266.82L307.63 266.73L308.18 266.68L308.74 266.68L309.3 266.73L309.85 266.82Z" id="aLRFi2HTQ"></path></defs><g><g><use xlink:href="#aLRFi2HTQ" opacity="1" fill="#ffffff" fill-opacity="1"></use><g><use xlink:href="#aLRFi2HTQ" opacity="1" fill-opacity="0" stroke="#0000cc" stroke-width="2" stroke-opacity="1"></use></g></g></g></svg>