<?xml version="1.0" encoding="UTF-8" standalone="no"?>
<!DOCTYPE svg PUBLIC "-//W3C//DTD SVG 1.1//EN" "http://www.w3.org/Graphics/SVG/1.1/DTD/svg11.dtd">
<svg version="1.1" xmlns="http://www.w3.org/2000/svg" xmlns:xlink="http://www.w3.org/1999/xlink" preserveAspectRatio="xMidYMid meet" viewBox="242.20458467712203 28.770114942528807 80.79541532287797 35.59108749581242" width="76.8" height="31.59"><defs><path d="M309.85 29.91L310.39 30.05L310.91 30.23L311.43 30.45L311.92 30.73L312.4 31.04L312.85 31.4L313.27 31.8L313.66 32.24L318.63 38.38L318.97 38.84L319.26 39.33L319.51 39.84L319.7 40.35L319.85 40.88L319.95 41.42L320 41.96L320 42.5L319.96 43.04L319.87 43.57L319.73 44.09L319.55 44.61L319.32 45.1L319.05 45.58L318.73 46.03L318.37 46.46L317.97 46.86L317.52 47.23L302.63 58.36L302.14 58.69L301.63 58.98L301.11 59.21L300.57 59.4L300.02 59.54L299.47 59.64L298.91 59.68L298.35 59.68L297.8 59.64L297.25 59.54L297.1 59.51L296.87 59.5L296.23 59.46L295.58 59.37L294.94 59.24L294.3 59.06L270.05 51.58L258.74 60.04L258.25 60.37L257.74 60.66L257.22 60.89L256.68 61.08L256.13 61.22L255.58 61.31L255.02 61.36L254.46 61.36L253.91 61.32L253.36 61.22L252.82 61.09L252.29 60.9L251.78 60.68L251.28 60.41L250.81 60.09L250.36 59.73L249.93 59.33L249.54 58.89L244.58 52.75L244.24 52.29L243.94 51.8L243.7 51.3L243.5 50.78L243.36 50.25L243.26 49.71L243.21 49.17L243.2 48.63L243.25 48.09L243.34 47.56L243.47 47.04L243.66 46.53L243.88 46.03L244.16 45.55L244.47 45.1L244.83 44.67L245.24 44.27L245.68 43.9L260.58 32.77L260.75 32.65L260.92 32.5L261.41 32.12L261.92 31.76L262.45 31.44L262.99 31.15L263.56 30.89L264.14 30.67L264.73 30.49L265.34 30.34L265.95 30.23L266.58 30.15L267.21 30.12L267.84 30.13L268.48 30.17L269.12 30.26L269.77 30.39L270.41 30.57L295.01 38.16L304.47 31.09L304.96 30.76L305.46 30.48L305.99 30.24L306.53 30.05L307.07 29.91L307.63 29.82L308.18 29.77L308.74 29.77L309.3 29.82L309.85 29.91Z" id="b2jwWqzLIu"></path></defs><g><g><use xlink:href="#b2jwWqzLIu" opacity="1" fill="#cc0000" fill-opacity="1"></use><g><use xlink:href="#b2jwWqzLIu" opacity="1" fill-opacity="0" stroke="#cc0000" stroke-width="2" stroke-opacity="1"></use></g></g></g></svg>