<?xml version="1.0" encoding="UTF-8" standalone="no"?>
<!DOCTYPE svg PUBLIC "-//W3C//DTD SVG 1.1//EN" "http://www.w3.org/Graphics/SVG/1.1/DTD/svg11.dtd">
<svg version="1.1" xmlns="http://www.w3.org/2000/svg" xmlns:xlink="http://www.w3.org/1999/xlink" preserveAspectRatio="xMidYMid meet" viewBox="242.2045846771219 219.2441358501124 80.795415322878 35.591087495812445" width="76.8" height="31.59"><defs><path d="M309.85 220.38L310.39 220.52L310.91 220.7L311.43 220.93L311.92 221.2L312.4 221.51L312.85 221.87L313.27 222.27L313.66 222.72L318.63 228.85L318.97 229.32L319.26 229.8L319.51 230.31L319.7 230.83L319.85 231.36L319.95 231.89L320 232.43L320 232.97L319.96 233.51L319.87 234.04L319.73 234.57L319.55 235.08L319.32 235.58L319.05 236.05L318.73 236.51L318.37 236.93L317.97 237.33L317.52 237.7L302.63 248.83L302.14 249.17L301.63 249.45L301.11 249.69L300.57 249.88L300.02 250.02L299.47 250.11L298.91 250.16L298.35 250.16L297.8 250.11L297.25 250.02L297.1 249.98L296.87 249.98L296.23 249.93L295.58 249.84L294.94 249.71L294.3 249.54L270.05 242.06L258.74 250.51L258.25 250.84L257.74 251.13L257.22 251.37L256.68 251.55L256.13 251.7L255.58 251.79L255.02 251.84L254.46 251.84L253.91 251.79L253.36 251.7L252.82 251.56L252.29 251.38L251.78 251.15L251.28 250.88L250.81 250.57L250.36 250.21L249.93 249.81L249.54 249.36L244.58 243.23L244.24 242.76L243.94 242.27L243.7 241.77L243.5 241.25L243.36 240.72L243.26 240.19L243.21 239.65L243.2 239.11L243.25 238.57L243.34 238.03L243.47 237.51L243.66 237L243.88 236.5L244.16 236.03L244.47 235.57L244.83 235.14L245.24 234.74L245.68 234.38L260.58 223.25L260.75 223.13L260.92 222.98L261.41 222.59L261.92 222.24L262.45 221.91L262.99 221.62L263.56 221.37L264.14 221.15L264.73 220.96L265.34 220.81L265.95 220.7L266.58 220.63L267.21 220.6L267.84 220.6L268.48 220.65L269.12 220.74L269.77 220.87L270.41 221.04L295.01 228.63L304.47 221.57L304.96 221.24L305.46 220.95L305.99 220.71L306.53 220.53L307.07 220.38L307.63 220.29L308.18 220.24L308.74 220.24L309.3 220.29L309.85 220.38Z" id="eLpNQ6IIH"></path></defs><g><g><use xlink:href="#eLpNQ6IIH" opacity="1" fill="#ffffff" fill-opacity="1"></use><g><use xlink:href="#eLpNQ6IIH" opacity="1" fill-opacity="0" stroke="#00cc00" stroke-width="2" stroke-opacity="1"></use></g></g></g></svg>