<?xml version="1.0" encoding="UTF-8" standalone="no"?>
<!DOCTYPE svg PUBLIC "-//W3C//DTD SVG 1.1//EN" "http://www.w3.org/Graphics/SVG/1.1/DTD/svg11.dtd">
<svg version="1.1" xmlns="http://www.w3.org/2000/svg" xmlns:xlink="http://www.w3.org/1999/xlink" preserveAspectRatio="xMidYMid meet" viewBox="241.53791801045512 406.1125939685205 80.79541532287803 35.59108749581253" width="76.8" height="31.59"><defs><path d="M309.18 407.25L309.72 407.39L310.25 407.57L310.76 407.8L311.26 408.07L311.73 408.38L312.18 408.74L312.6 409.14L313 409.59L317.96 415.72L318.3 416.19L318.6 416.67L318.84 417.18L319.03 417.7L319.18 418.22L319.28 418.76L319.33 419.3L319.33 419.84L319.29 420.38L319.2 420.91L319.06 421.44L318.88 421.95L318.65 422.44L318.38 422.92L318.07 423.37L317.71 423.8L317.3 424.2L316.85 424.57L301.96 435.7L301.47 436.03L300.96 436.32L300.44 436.56L299.9 436.74L299.36 436.89L298.8 436.98L298.24 437.03L297.69 437.03L297.13 436.98L296.58 436.89L296.43 436.85L296.1 436.84L295.49 436.79L294.87 436.7L294.25 436.57L293.64 436.4L269.39 428.92L258.07 437.38L257.58 437.71L257.07 438L256.55 438.23L256.01 438.42L255.46 438.56L254.91 438.66L254.35 438.7L253.8 438.7L253.24 438.66L252.69 438.57L252.15 438.43L251.62 438.25L251.11 438.02L250.62 437.75L250.14 437.43L249.69 437.08L249.27 436.67L248.87 436.23L243.91 430.1L243.57 429.63L243.28 429.14L243.03 428.64L242.84 428.12L242.69 427.59L242.59 427.06L242.54 426.52L242.54 425.97L242.58 425.44L242.67 424.9L242.81 424.38L242.99 423.87L243.22 423.37L243.49 422.9L243.81 422.44L244.17 422.01L244.57 421.61L245.02 421.25L259.91 410.12L260.06 410.01L260.09 409.99L260.55 409.6L261.03 409.25L261.53 408.93L262.05 408.63L262.59 408.37L263.13 408.14L263.7 407.94L264.27 407.77L264.86 407.64L265.45 407.55L266.05 407.49L266.66 407.46L267.27 407.47L267.89 407.52L268.51 407.61L269.12 407.74L269.74 407.91L294.35 415.5L303.8 408.44L304.29 408.1L304.8 407.82L305.32 407.58L305.86 407.39L306.41 407.25L306.96 407.16L307.52 407.11L308.07 407.11L308.63 407.16L309.18 407.25Z" id="fn4pjBsMf"></path><path d="M268.71 408.17L270.71 408.17L270.71 430.17L268.71 430.17L268.71 408.17Z" id="a13Z90s4G8"></path><path d="M254.71 413.7L256.71 413.7L256.71 438.7L254.71 438.7L254.71 413.7Z" id="a1QWBeP0Ug"></path><path d="M261.71 408.7L263.71 408.7L263.71 433.7L261.71 433.7L261.71 408.7Z" id="avw9ToHW0"></path><path d="M275.49 409.7L277.49 409.7L277.49 431.7L275.49 431.7L275.49 409.7Z" id="aiKjrlLZ8"></path><path d="M282.49 411.7L284.49 411.7L284.49 432.7L282.49 432.7L282.49 411.7Z" id="bihy2IETD"></path><path d="M289.49 414.7L291.49 414.7L291.49 435.7L289.49 435.7L289.49 414.7Z" id="a3qQRoVs9T"></path><path d="M296.49 413.17L298.49 413.17L298.49 437.17L296.49 437.17L296.49 413.17Z" id="a2WNXHarsx"></path><path d="M309.32 408.7L311.32 408.7L311.32 429.7L309.32 429.7L309.32 408.7Z" id="a1JDpPI3XC"></path><path d="M302.99 408.7L304.99 408.7L304.99 433.7L302.99 433.7L302.99 408.7Z" id="hbhZ8NCC"></path><path d="M315.32 413.7L317.32 413.7L317.32 425.7L315.32 425.7L315.32 413.7Z" id="hnEbbhjYk"></path><path d="M248.21 417.67L250.21 417.67L250.21 436.67L248.21 436.67L248.21 417.67Z" id="a95K9uvXO"></path></defs><g><g><use xlink:href="#fn4pjBsMf" opacity="1" fill="#ffffff" fill-opacity="1"></use><g><use xlink:href="#fn4pjBsMf" opacity="1" fill-opacity="0" stroke="#0000cc" stroke-width="2" stroke-opacity="1"></use></g></g><g><use xlink:href="#a13Z90s4G8" opacity="1" fill="#0000cc" fill-opacity="1"></use></g><g><use xlink:href="#a1QWBeP0Ug" opacity="1" fill="#0000cc" fill-opacity="1"></use></g><g><use xlink:href="#avw9ToHW0" opacity="1" fill="#0000cc" fill-opacity="1"></use></g><g><use xlink:href="#aiKjrlLZ8" opacity="1" fill="#0000cc" fill-opacity="1"></use></g><g><use xlink:href="#bihy2IETD" opacity="1" fill="#0000cc" fill-opacity="1"></use></g><g><use xlink:href="#a3qQRoVs9T" opacity="1" fill="#0000cc" fill-opacity="1"></use></g><g><use xlink:href="#a2WNXHarsx" opacity="1" fill="#0000cc" fill-opacity="1"></use></g><g><use xlink:href="#a1JDpPI3XC" opacity="1" fill="#0000cc" fill-opacity="1"></use></g><g><use xlink:href="#hbhZ8NCC" opacity="1" fill="#0000cc" fill-opacity="1"></use></g><g><use xlink:href="#hnEbbhjYk" opacity="1" fill="#0000cc" fill-opacity="1"></use></g><g><use xlink:href="#a95K9uvXO" opacity="1" fill="#0000cc" fill-opacity="1"></use></g></g></svg>